<?xml version="1.0" encoding="UTF-8" standalone="no"?><svg xmlns="http://www.w3.org/2000/svg" xmlns:xlink="http://www.w3.org/1999/xlink" contentScriptType="application/ecmascript" contentStyleType="text/css" height="440px" preserveAspectRatio="none" style="width:453px;height:440px;" version="1.1" viewBox="0 0 453 440" width="453px" zoomAndPan="magnify"><defs><filter height="300%" id="ff3pbl4" width="300%" x="-1" y="-1"><feGaussianBlur result="blurOut" stdDeviation="2.0"/><feColorMatrix in="blurOut" result="blurOut2" type="matrix" values="0 0 0 0 0 0 0 0 0 0 0 0 0 0 0 0 0 0 .4 0"/><feOffset dx="4.0" dy="4.0" in="blurOut2" result="blurOut3"/><feBlend in="SourceGraphic" in2="blurOut3" mode="normal"/></filter></defs><g><!--cluster JavaFX-container--><polygon fill="#FFFFFF" filter="url(#ff3pbl4)" points="131,24,268,24,275,46.2969,278,46.2969,278,123,131,123,131,24" style="stroke: #000000; stroke-width: 2.0;"/><line style="stroke: #000000; stroke-width: 2.0;" x1="131" x2="275" y1="46.2969" y2="46.2969"/><text fill="#000000" font-family="sans-serif" font-size="14" font-weight="bold" lengthAdjust="spacingAndGlyphs" textLength="131" x="135" y="38.9951">JavaFX-container</text><!--class UiImpl--><rect fill="#FEFECE" filter="url(#ff3pbl4)" height="48" style="stroke: #A80036; stroke-width: 1.5;" width="69" x="169.5" y="59"/><ellipse cx="184.5" cy="75" fill="#ADD1B2" rx="11" ry="11" style="stroke: #A80036; stroke-width: 1.0;"/><path d="M186.8438,70.6719 L187.0156,70.75 C187.2344,70.4375 187.4375,70.3438 187.7344,70.3438 C188.0313,70.3438 188.3125,70.4844 188.4688,70.75 C188.5625,70.9063 188.5781,71.0313 188.5781,71.4688 L188.5781,72.8906 C188.5781,73.3125 188.5469,73.5 188.4375,73.6563 C188.2656,73.875 188,74.0156 187.7344,74.0156 C187.5156,74.0156 187.2813,73.9063 187.1406,73.7656 C187,73.6406 186.9688,73.5156 186.9063,73.1094 C186.8125,72.7031 186.6406,72.4844 186.1563,72.2031 C185.6875,71.9531 185.0781,71.7969 184.5,71.7969 C182.7656,71.7969 181.5156,73.1094 181.5156,74.8906 L181.5156,75.9844 C181.5156,77.6875 182.8125,78.7813 184.8594,78.7813 C185.625,78.7813 186.3125,78.6563 186.7344,78.3906 C186.9219,78.2969 186.9219,78.2969 187.375,77.8125 C187.5625,77.625 187.7656,77.5469 187.9844,77.5469 C188.4531,77.5469 188.8438,77.9375 188.8438,78.3906 C188.8438,78.7813 188.5156,79.2344 187.9375,79.6406 C187.1875,80.1875 186.0313,80.4844 184.8125,80.4844 C181.9219,80.4844 179.8125,78.5938 179.8125,76.0156 L179.8125,74.8906 C179.8125,72.1719 181.8125,70.0938 184.4375,70.0938 C185.3125,70.0938 185.9063,70.2344 186.8438,70.6719 Z "/><text fill="#000000" font-family="sans-serif" font-size="12" lengthAdjust="spacingAndGlyphs" textLength="37" x="198.5" y="79.1543">UiImpl</text><line style="stroke: #A80036; stroke-width: 1.5;" x1="170.5" x2="237.5" y1="91" y2="91"/><line style="stroke: #A80036; stroke-width: 1.5;" x1="170.5" x2="237.5" y1="99" y2="99"/><!--class App--><rect fill="#FEFECE" filter="url(#ff3pbl4)" height="48" style="stroke: #A80036; stroke-width: 1.5;" width="56" x="176" y="167"/><ellipse cx="191" cy="183" fill="#B4A7E5" rx="11" ry="11" style="stroke: #A80036; stroke-width: 1.0;"/><path d="M191.9531,179.7813 L191.9531,186.2969 L193.6719,186.2969 C194.125,186.2969 194.2656,186.3281 194.4375,186.4531 C194.6719,186.625 194.7813,186.875 194.7813,187.1563 C194.7813,187.7188 194.4219,188 193.6719,188 L188.5313,188 C188.125,188 187.9219,187.9531 187.7656,187.8281 C187.5469,187.6719 187.4063,187.4063 187.4063,187.1563 C187.4063,186.8594 187.5625,186.5781 187.8125,186.4219 C187.9688,186.3125 188.0938,186.2969 188.5313,186.2969 L190.25,186.2969 L190.25,179.7813 L188.5313,179.7813 C188.1094,179.7813 187.9219,179.75 187.7656,179.6406 C187.5469,179.4688 187.4063,179.2188 187.4063,178.9375 C187.4063,178.6563 187.5625,178.3594 187.8125,178.2031 C187.9688,178.1094 188.0938,178.0938 188.5313,178.0938 L193.6719,178.0938 C194.125,178.0938 194.2656,178.125 194.4375,178.2344 C194.6719,178.4063 194.7813,178.6719 194.7813,178.9375 C194.7813,179.2344 194.6406,179.5156 194.375,179.6719 C194.25,179.75 194.0625,179.7813 193.6719,179.7813 Z "/><text fill="#000000" font-family="sans-serif" font-size="12" font-style="italic" lengthAdjust="spacingAndGlyphs" textLength="24" x="205" y="187.1543">App</text><line style="stroke: #A80036; stroke-width: 1.5;" x1="177" x2="231" y1="199" y2="199"/><line style="stroke: #A80036; stroke-width: 1.5;" x1="177" x2="231" y1="207" y2="207"/><!--class CameraAccess--><rect fill="#FEFECE" filter="url(#ff3pbl4)" height="48" style="stroke: #A80036; stroke-width: 1.5;" width="122" x="6" y="275"/><ellipse cx="21" cy="291" fill="#B4A7E5" rx="11" ry="11" style="stroke: #A80036; stroke-width: 1.0;"/><path d="M21.9531,287.7813 L21.9531,294.2969 L23.6719,294.2969 C24.125,294.2969 24.2656,294.3281 24.4375,294.4531 C24.6719,294.625 24.7813,294.875 24.7813,295.1563 C24.7813,295.7188 24.4219,296 23.6719,296 L18.5313,296 C18.125,296 17.9219,295.9531 17.7656,295.8281 C17.5469,295.6719 17.4063,295.4063 17.4063,295.1563 C17.4063,294.8594 17.5625,294.5781 17.8125,294.4219 C17.9688,294.3125 18.0938,294.2969 18.5313,294.2969 L20.25,294.2969 L20.25,287.7813 L18.5313,287.7813 C18.1094,287.7813 17.9219,287.75 17.7656,287.6406 C17.5469,287.4688 17.4063,287.2188 17.4063,286.9375 C17.4063,286.6563 17.5625,286.3594 17.8125,286.2031 C17.9688,286.1094 18.0938,286.0938 18.5313,286.0938 L23.6719,286.0938 C24.125,286.0938 24.2656,286.125 24.4375,286.2344 C24.6719,286.4063 24.7813,286.6719 24.7813,286.9375 C24.7813,287.2344 24.6406,287.5156 24.375,287.6719 C24.25,287.75 24.0625,287.7813 23.6719,287.7813 Z "/><text fill="#000000" font-family="sans-serif" font-size="12" font-style="italic" lengthAdjust="spacingAndGlyphs" textLength="90" x="35" y="295.1543">CameraAccess</text><line style="stroke: #A80036; stroke-width: 1.5;" x1="7" x2="127" y1="307" y2="307"/><line style="stroke: #A80036; stroke-width: 1.5;" x1="7" x2="127" y1="315" y2="315"/><!--class ImageTransformer--><rect fill="#FEFECE" filter="url(#ff3pbl4)" height="48" style="stroke: #A80036; stroke-width: 1.5;" width="146" x="47" y="383"/><ellipse cx="62" cy="399" fill="#B4A7E5" rx="11" ry="11" style="stroke: #A80036; stroke-width: 1.0;"/><path d="M62.9531,395.7813 L62.9531,402.2969 L64.6719,402.2969 C65.125,402.2969 65.2656,402.3281 65.4375,402.4531 C65.6719,402.625 65.7813,402.875 65.7813,403.1563 C65.7813,403.7188 65.4219,404 64.6719,404 L59.5313,404 C59.125,404 58.9219,403.9531 58.7656,403.8281 C58.5469,403.6719 58.4063,403.4063 58.4063,403.1563 C58.4063,402.8594 58.5625,402.5781 58.8125,402.4219 C58.9688,402.3125 59.0938,402.2969 59.5313,402.2969 L61.25,402.2969 L61.25,395.7813 L59.5313,395.7813 C59.1094,395.7813 58.9219,395.75 58.7656,395.6406 C58.5469,395.4688 58.4063,395.2188 58.4063,394.9375 C58.4063,394.6563 58.5625,394.3594 58.8125,394.2031 C58.9688,394.1094 59.0938,394.0938 59.5313,394.0938 L64.6719,394.0938 C65.125,394.0938 65.2656,394.125 65.4375,394.2344 C65.6719,394.4063 65.7813,394.6719 65.7813,394.9375 C65.7813,395.2344 65.6406,395.5156 65.375,395.6719 C65.25,395.75 65.0625,395.7813 64.6719,395.7813 Z "/><text fill="#000000" font-family="sans-serif" font-size="12" font-style="italic" lengthAdjust="spacingAndGlyphs" textLength="114" x="76" y="403.1543">ImageTransformer</text><line style="stroke: #A80036; stroke-width: 1.5;" x1="48" x2="192" y1="415" y2="415"/><line style="stroke: #A80036; stroke-width: 1.5;" x1="48" x2="192" y1="423" y2="423"/><!--class ProjectStoreManager--><rect fill="#FEFECE" filter="url(#ff3pbl4)" height="48" style="stroke: #A80036; stroke-width: 1.5;" width="164" x="280" y="275"/><ellipse cx="295" cy="291" fill="#B4A7E5" rx="11" ry="11" style="stroke: #A80036; stroke-width: 1.0;"/><path d="M295.9531,287.7813 L295.9531,294.2969 L297.6719,294.2969 C298.125,294.2969 298.2656,294.3281 298.4375,294.4531 C298.6719,294.625 298.7813,294.875 298.7813,295.1563 C298.7813,295.7188 298.4219,296 297.6719,296 L292.5313,296 C292.125,296 291.9219,295.9531 291.7656,295.8281 C291.5469,295.6719 291.4063,295.4063 291.4063,295.1563 C291.4063,294.8594 291.5625,294.5781 291.8125,294.4219 C291.9688,294.3125 292.0938,294.2969 292.5313,294.2969 L294.25,294.2969 L294.25,287.7813 L292.5313,287.7813 C292.1094,287.7813 291.9219,287.75 291.7656,287.6406 C291.5469,287.4688 291.4063,287.2188 291.4063,286.9375 C291.4063,286.6563 291.5625,286.3594 291.8125,286.2031 C291.9688,286.1094 292.0938,286.0938 292.5313,286.0938 L297.6719,286.0938 C298.125,286.0938 298.2656,286.125 298.4375,286.2344 C298.6719,286.4063 298.7813,286.6719 298.7813,286.9375 C298.7813,287.2344 298.6406,287.5156 298.375,287.6719 C298.25,287.75 298.0625,287.7813 297.6719,287.7813 Z "/><text fill="#000000" font-family="sans-serif" font-size="12" font-style="italic" lengthAdjust="spacingAndGlyphs" textLength="132" x="309" y="295.1543">ProjectStoreManager</text><line style="stroke: #A80036; stroke-width: 1.5;" x1="281" x2="443" y1="307" y2="307"/><line style="stroke: #A80036; stroke-width: 1.5;" x1="281" x2="443" y1="315" y2="315"/><!--class VideoEncoder--><rect fill="#FEFECE" filter="url(#ff3pbl4)" height="48" style="stroke: #A80036; stroke-width: 1.5;" width="119" x="228.5" y="383"/><ellipse cx="243.5" cy="399" fill="#B4A7E5" rx="11" ry="11" style="stroke: #A80036; stroke-width: 1.0;"/><path d="M244.4531,395.7813 L244.4531,402.2969 L246.1719,402.2969 C246.625,402.2969 246.7656,402.3281 246.9375,402.4531 C247.1719,402.625 247.2813,402.875 247.2813,403.1563 C247.2813,403.7188 246.9219,404 246.1719,404 L241.0313,404 C240.625,404 240.4219,403.9531 240.2656,403.8281 C240.0469,403.6719 239.9063,403.4063 239.9063,403.1563 C239.9063,402.8594 240.0625,402.5781 240.3125,402.4219 C240.4688,402.3125 240.5938,402.2969 241.0313,402.2969 L242.75,402.2969 L242.75,395.7813 L241.0313,395.7813 C240.6094,395.7813 240.4219,395.75 240.2656,395.6406 C240.0469,395.4688 239.9063,395.2188 239.9063,394.9375 C239.9063,394.6563 240.0625,394.3594 240.3125,394.2031 C240.4688,394.1094 240.5938,394.0938 241.0313,394.0938 L246.1719,394.0938 C246.625,394.0938 246.7656,394.125 246.9375,394.2344 C247.1719,394.4063 247.2813,394.6719 247.2813,394.9375 C247.2813,395.2344 247.1406,395.5156 246.875,395.6719 C246.75,395.75 246.5625,395.7813 246.1719,395.7813 Z "/><text fill="#000000" font-family="sans-serif" font-size="12" font-style="italic" lengthAdjust="spacingAndGlyphs" textLength="87" x="257.5" y="403.1543">VideoEncoder</text><line style="stroke: #A80036; stroke-width: 1.5;" x1="229.5" x2="346.5" y1="415" y2="415"/><line style="stroke: #A80036; stroke-width: 1.5;" x1="229.5" x2="346.5" y1="423" y2="423"/><!--class AppImpl--><rect fill="#FEFECE" filter="url(#ff3pbl4)" height="48" style="stroke: #A80036; stroke-width: 1.5;" width="81" x="163.5" y="275"/><ellipse cx="178.5" cy="291" fill="#ADD1B2" rx="11" ry="11" style="stroke: #A80036; stroke-width: 1.0;"/><path d="M180.8438,286.6719 L181.0156,286.75 C181.2344,286.4375 181.4375,286.3438 181.7344,286.3438 C182.0313,286.3438 182.3125,286.4844 182.4688,286.75 C182.5625,286.9063 182.5781,287.0313 182.5781,287.4688 L182.5781,288.8906 C182.5781,289.3125 182.5469,289.5 182.4375,289.6563 C182.2656,289.875 182,290.0156 181.7344,290.0156 C181.5156,290.0156 181.2813,289.9063 181.1406,289.7656 C181,289.6406 180.9688,289.5156 180.9063,289.1094 C180.8125,288.7031 180.6406,288.4844 180.1563,288.2031 C179.6875,287.9531 179.0781,287.7969 178.5,287.7969 C176.7656,287.7969 175.5156,289.1094 175.5156,290.8906 L175.5156,291.9844 C175.5156,293.6875 176.8125,294.7813 178.8594,294.7813 C179.625,294.7813 180.3125,294.6563 180.7344,294.3906 C180.9219,294.2969 180.9219,294.2969 181.375,293.8125 C181.5625,293.625 181.7656,293.5469 181.9844,293.5469 C182.4531,293.5469 182.8438,293.9375 182.8438,294.3906 C182.8438,294.7813 182.5156,295.2344 181.9375,295.6406 C181.1875,296.1875 180.0313,296.4844 178.8125,296.4844 C175.9219,296.4844 173.8125,294.5938 173.8125,292.0156 L173.8125,290.8906 C173.8125,288.1719 175.8125,286.0938 178.4375,286.0938 C179.3125,286.0938 179.9063,286.2344 180.8438,286.6719 Z "/><text fill="#000000" font-family="sans-serif" font-size="12" lengthAdjust="spacingAndGlyphs" textLength="49" x="192.5" y="295.1543">AppImpl</text><line style="stroke: #A80036; stroke-width: 1.5;" x1="164.5" x2="243.5" y1="307" y2="307"/><line style="stroke: #A80036; stroke-width: 1.5;" x1="164.5" x2="243.5" y1="315" y2="315"/><path d="M204,107 C204,123.003 204,144.446 204,161.528 " fill="none" style="stroke: #A80036; stroke-width: 1.0;"/><polygon fill="#A80036" points="204,166.678,208,157.678,204,161.678,200,157.678,204,166.678" style="stroke: #A80036; stroke-width: 1.0;"/><path d="M204,235.024 C204,248.579 204,263.038 204,274.678 " fill="none" style="stroke: #A80036; stroke-width: 1.0;"/><polygon fill="none" points="197,235,204,215,211,235,197,235" style="stroke: #A80036; stroke-width: 1.0;"/><path d="M133.251,299 C143.278,299 153.305,299 163.332,299 " fill="none" style="stroke: #A80036; stroke-width: 1.0;"/><polygon fill="#A80036" points="128.008,299,137.008,303,133.008,299,137.008,295,128.008,299" style="stroke: #A80036; stroke-width: 1.0;"/><path d="M185.773,323 C172.873,339.2789 155.512,361.1871 141.866,378.4076 " fill="none" style="stroke: #A80036; stroke-width: 1.0;"/><polygon fill="#A80036" points="138.481,382.6784,147.2058,378.1092,141.5865,378.7597,140.936,373.1404,138.481,382.6784" style="stroke: #A80036; stroke-width: 1.0;"/><path d="M244.734,299 C254.616,299 264.498,299 274.38,299 " fill="none" style="stroke: #A80036; stroke-width: 1.0;"/><polygon fill="#A80036" points="279.548,299,270.548,295,274.548,299,270.548,303,279.548,299" style="stroke: #A80036; stroke-width: 1.0;"/><path d="M222.227,323 C235.127,339.2789 252.488,361.1871 266.134,378.4076 " fill="none" style="stroke: #A80036; stroke-width: 1.0;"/><polygon fill="#A80036" points="269.519,382.6784,267.064,373.1404,266.4135,378.7597,260.7942,378.1092,269.519,382.6784" style="stroke: #A80036; stroke-width: 1.0;"/></g></svg>
